<svg width="227" height="40" viewBox="0 0 227 40" fill="none" xmlns="http://www.w3.org/2000/svg">
<path d="M14.5319 33.7081C12.6713 33.7087 10.8358 33.2735 9.16974 32.4367C7.50367 31.5999 6.05237 30.3843 4.92986 28.8854C3.80736 27.3864 3.04421 25.645 2.70037 23.798C2.35654 21.9509 2.44138 20.0484 2.94823 18.24C3.45509 16.4317 4.37015 14.7666 5.62153 13.3757C6.87291 11.9848 8.42653 10.9059 10.1603 10.2238C11.8941 9.54174 13.7609 9.27501 15.614 9.44458C17.4671 9.61416 19.256 10.2154 20.8402 11.2012C20.8926 10.3058 21.0383 9.41844 21.2749 8.5539C19.0606 7.38083 16.5841 6.8049 14.0849 6.88182C11.5857 6.95875 9.14845 7.68593 7.00899 8.993C4.86952 10.3001 3.10026 12.1428 1.87238 14.3429C0.644505 16.543 -0.000422976 19.0259 2.08127e-07 21.5515C2.08127e-07 29.637 6.5193 36.2209 14.5319 36.2209C21.6568 36.2209 27.5981 31.0075 28.8196 24.1606C28.0012 23.8188 27.2217 23.3888 26.4947 22.878C26.1681 25.8532 24.7675 28.6025 22.5606 30.6004C20.3538 32.5983 17.4954 33.7046 14.5319 33.7081Z" fill="#6B828D"/>
<path d="M14.532 14.4891C13.1502 14.4882 11.7992 14.9011 10.6498 15.6757C9.50032 16.4502 8.60402 17.5516 8.0742 18.8406C7.54438 20.1297 7.40482 21.5484 7.67316 22.9176C7.94151 24.2867 8.60571 25.5447 9.58179 26.5326C10.5579 27.5205 11.802 28.1939 13.1569 28.4676C14.5119 28.7414 15.9167 28.6032 17.1939 28.0706C18.4711 27.5379 19.5632 26.6348 20.3323 25.4752C21.1014 24.3157 21.5128 22.9519 21.5147 21.5562C21.5147 19.6843 20.7794 17.8888 19.4703 16.5639C18.1612 15.239 16.3852 14.4928 14.532 14.4891ZM20.3138 21.5562C20.3131 22.7122 19.973 23.8421 19.3366 24.8029C18.7002 25.7637 17.796 26.5123 16.7383 26.954C15.6807 27.3957 14.5171 27.5107 13.3947 27.2844C12.2724 27.0581 11.2417 26.5007 10.433 25.6827C9.62424 24.8647 9.07384 23.8228 8.85137 22.6888C8.6289 21.5548 8.74434 20.3797 9.1831 19.312C9.62187 18.2442 10.3642 17.3319 11.3163 16.6904C12.2684 16.0489 13.3875 15.707 14.532 15.7079C16.0656 15.7091 17.5361 16.3253 18.6202 17.421C19.7043 18.5167 20.3135 20.0024 20.3138 21.5515V21.5562Z" fill="#6B828D"/>
<path d="M6.82666 23.1422V19.9226C6.82644 19.8355 6.80058 19.7505 6.75238 19.6783C6.70418 19.6061 6.63582 19.55 6.55598 19.5171C5.80472 19.1696 4.34694 19.1696 3.59568 19.5171C3.518 19.552 3.45197 19.6089 3.40557 19.6808C3.35917 19.7528 3.33437 19.8368 3.33418 19.9226V23.1422C3.33368 23.2231 3.35471 23.3027 3.39506 23.3726C3.43541 23.4425 3.49361 23.5002 3.56357 23.5396C4.29647 23.9369 5.86895 23.9369 6.59383 23.5396C6.66509 23.5014 6.72454 23.4441 6.76562 23.374C6.8067 23.3039 6.82782 23.2237 6.82666 23.1422Z" fill="#6B828D"/>
<path d="M22.2338 19.9273V23.1376C22.2318 23.2194 22.2522 23.3002 22.2926 23.3711C22.3331 23.442 22.3921 23.5003 22.4632 23.5396C23.1915 23.9405 24.7571 23.9405 25.4911 23.5396C25.5642 23.5021 25.6252 23.4444 25.667 23.3732C25.7088 23.302 25.7298 23.2203 25.7274 23.1376V22.3069C24.6842 21.4677 23.7748 20.4717 23.0309 19.3538C22.8459 19.3878 22.6651 19.4422 22.4918 19.516C22.4153 19.5536 22.3506 19.612 22.305 19.6846C22.2594 19.7573 22.2348 19.8413 22.2338 19.9273Z" fill="#6B828D"/>
<path d="M10.3134 14.4207C10.0232 13.641 8.99212 12.5995 8.22022 12.3064C8.14083 12.2756 8.05434 12.2686 7.97112 12.2863C7.8879 12.304 7.81151 12.3456 7.75112 12.406L5.4962 14.6791C5.43982 14.7361 5.39949 14.8073 5.37933 14.8852C5.35917 14.9632 5.35992 15.0452 5.3815 15.1228C5.62007 15.9268 6.73147 17.0494 7.52172 17.2869C7.59927 17.3109 7.68186 17.3127 7.76038 17.2923C7.8389 17.2718 7.91031 17.2299 7.96674 17.1711L10.2205 14.8946C10.28 14.8333 10.3205 14.7559 10.3371 14.6717C10.3536 14.5875 10.3453 14.5003 10.3134 14.4207Z" fill="#6B828D"/>
<path d="M23.5826 28.395C23.6434 28.3334 23.6847 28.2548 23.7012 28.1695C23.7177 28.0841 23.7088 27.9956 23.6755 27.9154C23.3853 27.1357 22.3542 26.093 21.5823 25.7999C21.5028 25.7694 21.4162 25.7627 21.3331 25.7806C21.2499 25.7984 21.1735 25.8401 21.1132 25.9007L18.8594 28.1772C18.803 28.234 18.7627 28.3049 18.7425 28.3827C18.7224 28.4605 18.7231 28.5424 18.7447 28.6198C18.9856 29.4238 20.0981 30.5476 20.8884 30.7839C20.9657 30.8082 21.0482 30.8102 21.1266 30.7897C21.205 30.7692 21.2762 30.7271 21.3323 30.6681L23.5826 28.395Z" fill="#6B828D"/>
<path d="M16.5403 10.5049C16.5056 10.4262 16.4492 10.3593 16.3778 10.3122C16.3063 10.2652 16.223 10.2399 16.1377 10.2396H12.9503C12.8704 10.2394 12.7919 10.2608 12.723 10.3015C12.654 10.3423 12.5971 10.4009 12.5581 10.4713C12.1646 11.2127 12.1646 12.7999 12.5581 13.5321C12.5952 13.6047 12.6515 13.6654 12.7208 13.7075C12.79 13.7497 12.8695 13.7716 12.9503 13.7708H16.1377C16.2241 13.7706 16.3085 13.7446 16.3801 13.6959C16.4518 13.6472 16.5076 13.5781 16.5403 13.4974C16.8809 12.7362 16.8809 11.2637 16.5403 10.5049Z" fill="#6B828D"/>
<path d="M12.5581 32.6179C12.5952 32.6904 12.6515 32.7511 12.7208 32.7932C12.79 32.8354 12.8695 32.8573 12.9503 32.8565H16.1377C16.2241 32.8564 16.3085 32.8303 16.3801 32.7816C16.4518 32.7329 16.5076 32.6638 16.5403 32.5831C16.8844 31.8243 16.8844 30.3518 16.5403 29.5929C16.5056 29.5142 16.4492 29.4473 16.3777 29.4003C16.3063 29.3532 16.223 29.328 16.1377 29.3276H12.9503C12.8704 29.3275 12.7919 29.3488 12.723 29.3896C12.654 29.4303 12.5971 29.4889 12.5581 29.5593C12.1646 30.2985 12.1646 31.8857 12.5581 32.6179Z" fill="#6B828D"/>
<path d="M21.8461 17.1653C21.2069 15.6393 20.8601 14.0047 20.8242 12.3481C20.0763 12.5393 18.9604 13.7442 18.7528 14.4706C18.726 14.5475 18.7214 14.6305 18.7397 14.7099C18.758 14.7893 18.7983 14.8618 18.856 14.9189L21.1178 17.1943C21.1784 17.2555 21.2557 17.2973 21.3398 17.3142C21.4239 17.3311 21.5111 17.3224 21.5903 17.2893C21.6791 17.2558 21.7647 17.2143 21.8461 17.1653Z" fill="#6B828D"/>
<path d="M10.3226 28.6708C10.3534 28.5906 10.3604 28.5032 10.3429 28.419C10.3254 28.3349 10.2841 28.2578 10.224 28.1969L7.96677 25.9215C7.91055 25.8646 7.84031 25.8238 7.76329 25.8035C7.68626 25.7831 7.60526 25.7839 7.52863 25.8057C6.73149 26.0467 5.62009 27.1646 5.3907 27.9675C5.36673 28.0458 5.36477 28.1293 5.38502 28.2087C5.40527 28.2881 5.44694 28.3602 5.5054 28.417L7.75917 30.6936C7.8202 30.755 7.89792 30.7967 7.98247 30.8134C8.06701 30.8301 8.15456 30.8211 8.23401 30.7874C8.99788 30.4943 10.029 29.4528 10.3226 28.6708Z" fill="#6B828D"/>
<path d="M22.2338 12.033C22.2338 14.3473 22.9132 16.6096 24.1861 18.5338C25.459 20.4581 27.2682 21.9578 29.385 22.8435C31.5017 23.7291 33.8309 23.9608 36.078 23.5093C38.3252 23.0579 40.3893 21.9434 42.0094 20.307C43.6295 18.6705 44.7328 16.5856 45.1797 14.3158C45.6267 12.046 45.3973 9.69324 44.5205 7.55512C43.6437 5.41701 42.159 3.58953 40.2539 2.30378C38.3489 1.01804 36.1092 0.331772 33.8181 0.331772C30.7467 0.335145 27.8022 1.56903 25.6304 3.7627C23.4587 5.95637 22.2371 8.93066 22.2338 12.033ZM44.0799 12.033C44.0815 14.0834 43.4809 16.0882 42.3542 17.7937C41.2275 19.4993 39.6253 20.829 37.7503 21.6145C35.8753 22.4001 33.8117 22.6062 31.8207 22.2068C29.8297 21.8075 28.0006 20.8206 26.565 19.3709C25.1294 17.9213 24.1518 16.0742 23.7557 14.0632C23.3597 12.0522 23.5631 9.96773 24.3401 8.07352C25.1172 6.17931 26.433 4.56047 28.1212 3.42183C29.8093 2.28319 31.7939 1.67592 33.8238 1.67683C36.5426 1.67898 39.1496 2.77065 41.0724 4.71224C42.9952 6.65383 44.0769 9.2867 44.0799 12.033Z" fill="#6B828D"/>
<path d="M27.6084 12.033C27.6093 13.2737 27.9743 14.4862 28.6573 15.5174C29.3403 16.5485 30.3105 17.3521 31.4455 17.8264C32.5805 18.3007 33.8291 18.4245 35.0337 18.1821C36.2383 17.9398 37.3448 17.3421 38.2132 16.4648C39.0816 15.5874 39.6731 14.4697 39.9128 13.2529C40.1525 12.0361 40.0297 10.7748 39.5599 9.6285C39.0902 8.48217 38.2945 7.50224 37.2735 6.81256C36.2525 6.12288 35.052 5.75441 33.8238 5.75372C32.1761 5.75679 30.5968 6.41937 29.4318 7.59633C28.2668 8.77329 27.6111 10.3687 27.6084 12.033ZM38.7064 12.033C38.7066 13.0085 38.4204 13.9621 37.884 14.7733C37.3477 15.5845 36.5852 16.2168 35.693 16.5903C34.8009 16.9638 33.8191 17.0616 32.8719 16.8714C31.9247 16.6813 31.0546 16.2116 30.3716 15.5219C29.6887 14.8322 29.2236 13.9535 29.0351 12.9967C28.8466 12.04 28.9432 11.0483 29.3127 10.1471C29.6822 9.24581 30.308 8.47549 31.111 7.93351C31.914 7.39154 32.858 7.10226 33.8238 7.10226C35.118 7.10379 36.3589 7.62373 37.2742 8.54806C38.1895 9.47239 38.7045 10.7256 38.7064 12.033Z" fill="#6B828D"/>
<path d="M26.9627 12.033C26.9627 11.7562 26.8814 11.4856 26.7292 11.2555C26.5769 11.0253 26.3605 10.8459 26.1074 10.74C25.8542 10.6341 25.5756 10.6064 25.3068 10.6604C25.0381 10.7144 24.7912 10.8477 24.5974 11.0434C24.4037 11.2391 24.2717 11.4885 24.2182 11.7599C24.1648 12.0314 24.1922 12.3128 24.2971 12.5685C24.402 12.8243 24.5795 13.0428 24.8074 13.1966C25.0352 13.3504 25.3031 13.4325 25.5771 13.4325C25.7591 13.4326 25.9394 13.3965 26.1075 13.3263C26.2757 13.256 26.4285 13.1529 26.5572 13.0229C26.6859 12.8929 26.7879 12.7386 26.8575 12.5687C26.9271 12.3989 26.9628 12.2168 26.9627 12.033Z" fill="#6B828D"/>
<path d="M40.6826 12.033C40.6824 12.3099 40.7635 12.5806 40.9156 12.811C41.0678 13.0413 41.2842 13.2208 41.5374 13.3269C41.7906 13.433 42.0693 13.4608 42.3382 13.4068C42.607 13.3529 42.854 13.2196 43.0479 13.0238C43.2417 12.828 43.3737 12.5785 43.4271 12.3069C43.4805 12.0353 43.453 11.7538 43.348 11.498C43.243 11.2423 43.0652 11.0237 42.8372 10.87C42.6092 10.7163 42.3411 10.6344 42.067 10.6346C41.6998 10.6346 41.3477 10.782 41.0881 11.0442C40.8285 11.3065 40.6826 11.6621 40.6826 12.033Z" fill="#6B828D"/>
<path d="M27.4846 14.6849C27.3797 14.4295 27.2022 14.2112 26.9746 14.0577C26.7469 13.9042 26.4793 13.8223 26.2056 13.8223C25.9319 13.8223 25.6643 13.9043 25.4367 14.0579C25.2091 14.2115 25.0317 14.4298 24.9269 14.6853C24.8221 14.9407 24.7946 15.2217 24.8479 15.4929C24.9012 15.7641 25.0329 16.0133 25.2264 16.2089C25.4198 16.4045 25.6663 16.5378 25.9348 16.5919C26.2032 16.6461 26.4815 16.6186 26.7344 16.513C26.9026 16.4429 27.0555 16.3399 27.1842 16.21C27.3129 16.0801 27.4151 15.9258 27.4847 15.756C27.5544 15.5862 27.5902 15.4042 27.5902 15.2204C27.5902 15.0366 27.5543 14.8546 27.4846 14.6849Z" fill="#6B828D"/>
<path d="M40.1596 9.3811C40.2642 9.63702 40.4416 9.85584 40.6694 10.0099C40.8972 10.1639 41.165 10.2462 41.4392 10.2465C41.7133 10.2467 41.9813 10.1647 42.2093 10.0111C42.4373 9.85736 42.615 9.63882 42.72 9.38306C42.825 9.1273 42.8526 8.84583 42.7992 8.57426C42.7458 8.30269 42.6138 8.05322 42.42 7.85742C42.2262 7.66162 41.9793 7.52829 41.7104 7.47429C41.4416 7.42029 41.1629 7.44806 40.9097 7.55408C40.5705 7.69608 40.301 7.96825 40.1604 8.31082C40.0197 8.65338 40.0194 9.03832 40.1596 9.3811Z" fill="#6B828D"/>
<path d="M28.971 16.9324C28.7773 16.737 28.5306 16.604 28.2621 16.5502C27.9936 16.4964 27.7153 16.5242 27.4625 16.6301C27.2096 16.736 26.9935 16.9152 26.8415 17.1451C26.6894 17.375 26.6083 17.6453 26.6083 17.9218C26.6083 18.1983 26.6894 18.4686 26.8415 18.6985C26.9935 18.9284 27.2096 19.1077 27.4625 19.2136C27.7153 19.3195 27.9936 19.3472 28.2621 19.2934C28.5306 19.2396 28.7773 19.1066 28.971 18.9112C29.2307 18.6488 29.3766 18.2929 29.3766 17.9218C29.3766 17.5508 29.2307 17.1949 28.971 16.9324Z" fill="#6B828D"/>
<path d="M38.6731 7.13351C38.8668 7.3289 39.1135 7.46191 39.382 7.51573C39.6505 7.56955 39.9287 7.54175 40.1816 7.43587C40.4345 7.32998 40.6506 7.15075 40.8026 6.92083C40.9547 6.69091 41.0358 6.42062 41.0358 6.14413C41.0358 5.86764 40.9547 5.59735 40.8026 5.36743C40.6506 5.13751 40.4345 4.95828 40.1816 4.8524C39.9287 4.74651 39.6505 4.71872 39.382 4.77253C39.1135 4.82635 38.8668 4.95936 38.6731 5.15475C38.5444 5.28462 38.4423 5.43885 38.3726 5.60861C38.3029 5.77838 38.2671 5.96035 38.2671 6.14413C38.2671 6.32791 38.3029 6.50988 38.3726 6.67965C38.4423 6.84942 38.5444 7.00364 38.6731 7.13351Z" fill="#6B828D"/>
<path d="M31.9462 20.2632C32.0506 20.0073 32.0774 19.7258 32.0234 19.4545C31.9694 19.1831 31.8369 18.934 31.6428 18.7387C31.4486 18.5434 31.2015 18.4106 30.9326 18.3571C30.6637 18.3037 30.3852 18.332 30.1322 18.4384C29.8793 18.5449 29.6633 18.7247 29.5115 18.9552C29.3597 19.1856 29.279 19.4564 29.2795 19.7332C29.2801 20.01 29.3619 20.2804 29.5146 20.5102C29.6673 20.7401 29.8841 20.919 30.1375 21.0244C30.3057 21.0945 30.486 21.1305 30.6679 21.1302C30.8499 21.1299 31.0301 21.0933 31.1981 21.0227C31.3661 20.952 31.5186 20.8485 31.647 20.7182C31.7754 20.5879 31.8771 20.4333 31.9462 20.2632Z" fill="#6B828D"/>
<path d="M35.6979 3.80389C35.5931 4.05948 35.5658 4.34069 35.6193 4.61197C35.6728 4.88325 35.8048 5.1324 35.9985 5.3279C36.1923 5.5234 36.4391 5.65648 36.7077 5.71029C36.9763 5.76411 37.2547 5.73624 37.5076 5.63022C37.7605 5.5242 37.9767 5.34479 38.1286 5.11468C38.2806 4.88457 38.3616 4.6141 38.3614 4.33749C38.3612 4.06088 38.2797 3.79055 38.1274 3.5607C37.975 3.33085 37.7586 3.15181 37.5055 3.04621C37.1662 2.90503 36.7854 2.90551 36.4466 3.04755C36.1077 3.18959 35.8384 3.46159 35.6979 3.80389Z" fill="#6B828D"/>
<path d="M33.8226 18.9622C33.5488 18.9629 33.2812 19.0455 33.0538 19.1997C32.8264 19.3539 32.6494 19.5728 32.545 19.8285C32.4407 20.0843 32.4137 20.3656 32.4676 20.6369C32.5214 20.9081 32.6537 21.1572 32.8476 21.3525C33.0415 21.5479 33.2884 21.6809 33.557 21.7346C33.8257 21.7883 34.1041 21.7604 34.3571 21.6544C34.6101 21.5483 34.8262 21.369 34.9783 21.1389C35.1304 20.9088 35.2116 20.6384 35.2116 20.3617C35.2116 20.1776 35.1757 19.9954 35.1058 19.8253C35.036 19.6553 34.9336 19.5009 34.8046 19.3709C34.6756 19.2409 34.5224 19.1379 34.3539 19.0677C34.1854 18.9976 34.0049 18.9617 33.8226 18.9622Z" fill="#6B828D"/>
<path d="M32.4371 3.70543C32.4371 3.98222 32.5183 4.2528 32.6706 4.48295C32.8228 4.7131 33.0392 4.89248 33.2924 4.9984C33.5456 5.10433 33.8241 5.13204 34.0929 5.07804C34.3617 5.02404 34.6086 4.89075 34.8023 4.69503C34.9961 4.4993 35.1281 4.24993 35.1815 3.97846C35.235 3.70698 35.2075 3.42559 35.1027 3.16986C34.9978 2.91413 34.8202 2.69556 34.5924 2.54178C34.3645 2.388 34.0966 2.30592 33.8226 2.30592C33.6406 2.30577 33.4604 2.34187 33.2922 2.41215C33.124 2.48242 32.9712 2.5855 32.8425 2.71549C32.7139 2.84548 32.6118 2.99982 32.5422 3.16968C32.4727 3.33955 32.4369 3.5216 32.4371 3.70543Z" fill="#6B828D"/>
<path d="M36.4468 18.4351C36.1936 18.541 35.9772 18.7204 35.8249 18.9506C35.6727 19.1808 35.5914 19.4514 35.5915 19.7283C35.5915 20.0051 35.6729 20.2757 35.8252 20.5059C35.9775 20.736 36.194 20.9154 36.4472 21.0212C36.7005 21.1271 36.9791 21.1547 37.2479 21.1006C37.5167 21.0464 37.7636 20.913 37.9572 20.7171C38.1509 20.5213 38.2828 20.2718 38.3361 20.0003C38.3894 19.7287 38.3618 19.4473 38.2567 19.1916C38.1159 18.8489 37.8462 18.5767 37.5068 18.4349C37.1674 18.293 36.7862 18.2931 36.4468 18.4351Z" fill="#6B828D"/>
<path d="M31.1972 5.63208C31.4505 5.52623 31.6669 5.34691 31.8192 5.11679C31.9716 4.88668 32.0529 4.61611 32.053 4.3393C32.053 4.06249 31.9718 3.79187 31.8196 3.56168C31.6674 3.33148 31.4511 3.15204 31.1979 3.04606C30.9448 2.94008 30.6662 2.91231 30.3974 2.96627C30.1286 3.02023 29.8817 3.15348 29.6879 3.34919C29.4941 3.5449 29.3621 3.79427 29.3086 4.06575C29.2551 4.33724 29.2825 4.61865 29.3873 4.8744C29.4568 5.04427 29.5588 5.19864 29.6874 5.32868C29.816 5.45871 29.9687 5.56187 30.1368 5.63224C30.3049 5.70261 30.4851 5.73882 30.667 5.73879C30.849 5.73876 31.0292 5.7025 31.1972 5.63208Z" fill="#6B828D"/>
<path d="M38.6731 16.9324C38.4795 17.128 38.3476 17.3772 38.2942 17.6484C38.2408 17.9197 38.2682 18.2008 38.373 18.4563C38.4778 18.7118 38.6552 18.9302 38.8829 19.0839C39.1105 19.2375 39.3782 19.3195 39.652 19.3195C39.9258 19.3195 40.1934 19.2375 40.4211 19.0839C40.6488 18.9302 40.8262 18.7118 40.931 18.4563C41.0358 18.2008 41.0632 17.9197 41.0098 17.6484C40.9564 17.3772 40.8245 17.128 40.6309 16.9324C40.5024 16.8026 40.3498 16.6996 40.1818 16.6293C40.0138 16.559 39.8338 16.5228 39.652 16.5228C39.4702 16.5228 39.2902 16.559 39.1222 16.6293C38.9542 16.6996 38.8016 16.8026 38.6731 16.9324Z" fill="#6B828D"/>
<path d="M28.971 7.13353C29.1646 6.93796 29.2964 6.6888 29.3499 6.41755C29.4033 6.1463 29.3758 5.86514 29.2711 5.60963C29.1663 5.35411 28.9888 5.13572 28.7612 4.98207C28.5335 4.82842 28.2659 4.74641 27.9921 4.74641C27.7183 4.74641 27.4506 4.82842 27.223 4.98207C26.9953 5.13572 26.8179 5.35411 26.7131 5.60963C26.6083 5.86514 26.5809 6.1463 26.6343 6.41755C26.6877 6.6888 26.8195 6.93796 27.0131 7.13353C27.1417 7.26339 27.2943 7.3664 27.4623 7.43667C27.6302 7.50695 27.8103 7.54312 27.9921 7.54312C28.1739 7.54312 28.3539 7.50695 28.5219 7.43667C28.6898 7.3664 28.8424 7.26339 28.971 7.13353Z" fill="#6B828D"/>
<path d="M40.1595 14.6849C40.0545 14.9406 40.0269 15.222 40.0802 15.4935C40.1335 15.7651 40.2653 16.0146 40.459 16.2104C40.6527 16.4063 40.8996 16.5397 41.1684 16.5938C41.4371 16.648 41.7158 16.6204 41.969 16.5145C42.2223 16.4086 42.4387 16.2293 42.5911 15.9992C42.7434 15.769 42.8247 15.4984 42.8248 15.2216C42.8248 14.9447 42.7436 14.6741 42.5913 14.4439C42.4391 14.2137 42.2227 14.0343 41.9695 13.9283C41.6301 13.7864 41.2488 13.7863 40.9095 13.9282C40.5701 14.07 40.3003 14.3422 40.1595 14.6849Z" fill="#6B828D"/>
<path d="M27.4845 9.3811C27.5899 9.12579 27.6179 8.84467 27.565 8.57328C27.5122 8.30189 27.3808 8.05243 27.1876 7.85645C26.9944 7.66046 26.7479 7.52677 26.4795 7.47226C26.211 7.41775 25.9326 7.44489 25.6794 7.55023C25.4262 7.65558 25.2096 7.8344 25.0571 8.06408C24.9045 8.29376 24.8228 8.56399 24.8223 8.84058C24.8218 9.11717 24.9025 9.3877 25.0542 9.61796C25.2059 9.84821 25.4218 10.0278 25.6746 10.1341C25.8424 10.2049 26.0223 10.2415 26.2041 10.2419C26.3859 10.2423 26.566 10.2065 26.7341 10.1366C26.9022 10.0667 27.055 9.96393 27.1838 9.8343C27.3125 9.70466 27.4147 9.55066 27.4845 9.3811Z" fill="#6B828D"/>
<path d="M46.5493 26.8009C46.5493 21.8585 50.3067 18.3215 55.3625 18.3215C58.1679 18.3215 60.5112 19.3515 62.0412 21.226L59.6326 23.4747C58.543 22.2096 57.1747 21.5538 55.5517 21.5538C52.5135 21.5538 50.356 23.7087 50.356 26.8009C50.356 29.893 52.5135 32.049 55.5517 32.049C57.1747 32.049 58.543 31.3921 59.6326 30.1038L62.0412 32.3526C60.5112 34.2503 58.1679 35.2813 55.3395 35.2813C50.3067 35.2813 46.5493 31.7443 46.5493 26.8009Z" fill="#3A3F44"/>
<path d="M75.1682 25.3956H70.9474V34.9998H67.3528V25.3956H63.132V22.3973H75.1682V25.3956Z" fill="#3A3F44"/>
<path d="M88.4097 27.8088V34.9998H85.0239V33.4312C84.3518 34.5781 83.0523 35.1875 81.2206 35.1875C78.2982 35.1875 76.5594 33.5482 76.5594 31.3643C76.5594 29.1388 78.1124 27.5933 81.9157 27.5933H84.7922C84.7922 26.0235 83.8644 25.1094 81.9157 25.1094C80.5944 25.1094 79.2261 25.5554 78.3211 26.2807L77.0228 23.7319C78.3911 22.7483 80.4086 22.2096 82.4031 22.2096C86.2064 22.2096 88.4097 23.9902 88.4097 27.8088ZM84.7922 31.0179V29.7296H82.3102C80.6173 29.7296 80.084 30.3622 80.084 31.2056C80.084 32.1185 80.849 32.7279 82.1244 32.7279C83.331 32.7256 84.3748 32.166 84.7922 31.0179Z" fill="#3A3F44"/>
<path d="M103.762 22.3973V34.9998H100.144V25.3956H96.2022L96.0875 27.6211C95.9017 32.1185 95.1825 35.2582 92.0984 35.2582C91.4628 35.245 90.8316 35.1504 90.2196 34.9766L90.4054 31.9784C90.5822 32.0043 90.7603 32.0198 90.9388 32.0247C92.6592 32.0247 92.7934 29.8467 92.9104 27.4566L93.0951 22.3973H103.762Z" fill="#3A3F44"/>
<path d="M119.254 30.6194C119.254 33.4068 117.213 35.0218 113.735 35.0218L107.472 34.9987V22.3973H111.068V26.4267H114.222C117.492 26.4498 119.254 27.9756 119.254 30.6194ZM115.566 30.5731C115.566 29.3311 114.801 28.8156 113.41 28.7924L111.068 28.7692V32.4232H113.41C114.801 32.4464 115.566 31.8138 115.566 30.5731Z" fill="#3A3F44"/>
<path d="M133.911 34.9998V27.4566L130.18 33.7822H128.648L125.008 27.4334V34.9998H121.738V22.3973H125.523L129.511 29.6821L133.755 22.3973H137.14L137.186 34.9998H133.911Z" fill="#3A3F44"/>
<path d="M151.722 27.8088V34.9998H148.336V33.4312C147.664 34.5781 146.364 35.1875 144.533 35.1875C141.61 35.1875 139.871 33.5482 139.871 31.3643C139.871 29.1388 141.424 27.5933 145.228 27.5933H148.104C148.104 26.0235 147.176 25.1094 145.228 25.1094C143.906 25.1094 142.538 25.5554 141.633 26.2807L140.335 23.7319C141.703 22.7483 143.721 22.2096 145.715 22.2096C149.518 22.2096 151.722 23.9902 151.722 27.8088ZM148.104 31.0179V29.7296H145.622C143.929 29.7296 143.396 30.3622 143.396 31.2056C143.396 32.1185 144.161 32.7279 145.436 32.7279C146.643 32.7256 147.687 32.166 148.104 31.0179Z" fill="#3A3F44"/>
<path d="M155.108 22.3973H158.702V29.893L164.781 22.3973H168.097V34.9998H164.502V27.5041L158.449 34.9998H155.11L155.108 22.3973ZM157.264 17.4074H159.63C159.653 18.4849 160.204 19.1452 161.35 19.1452C162.464 19.1452 163.09 18.4895 163.09 17.4074H165.499C165.476 19.8404 164.085 21.0383 161.37 21.0383C158.655 21.0383 157.288 19.8438 157.264 17.4074Z" fill="#3A3F44"/>
<path d="M170.782 28.6985C170.782 24.9032 173.681 22.2107 177.739 22.2107C180.36 22.2107 182.425 23.3588 183.328 25.4199L180.531 26.9422C179.858 25.7466 178.861 25.2044 177.724 25.2044C175.889 25.2044 174.454 26.4927 174.454 28.6951C174.454 30.8975 175.893 32.1858 177.724 32.1858C178.861 32.1858 179.858 31.6702 180.531 30.4479L183.336 31.9934C182.433 34.0081 180.368 35.1794 177.747 35.1794C173.684 35.1875 170.782 32.4939 170.782 28.6985Z" fill="#3A3F44"/>
<path d="M196.244 25.3956H192.023V34.9998H188.433V25.3956H184.213V22.3973H196.244V25.3956Z" fill="#3A3F44"/>
<path d="M210.467 29.7296H201.027C201.371 31.2983 202.697 32.2587 204.599 32.2587C205.92 32.2587 206.872 31.8613 207.73 31.0411L209.655 33.1496C208.495 34.4843 206.755 35.1875 204.506 35.1875C200.192 35.1875 197.387 32.4464 197.387 28.6997C197.387 24.9287 200.239 22.2119 204.039 22.2119C207.702 22.2119 210.532 24.6946 210.532 28.7483C210.534 29.0264 210.488 29.4249 210.467 29.7296ZM200.981 27.5979H207.127C206.872 26.0049 205.688 24.9738 204.065 24.9738C202.417 24.9738 201.235 25.9818 200.98 27.5979H200.981Z" fill="#3A3F44"/>
<path d="M227 28.6985C227 32.6573 224.287 35.1863 220.784 35.1863C219.232 35.1863 217.956 34.694 217.028 33.664V39.5436H213.41V22.3973H216.865V23.8501C217.77 22.7483 219.116 22.2096 220.784 22.2096C224.287 22.2096 227 24.7398 227 28.6985ZM223.336 28.6985C223.336 26.5205 221.968 25.2079 220.158 25.2079C218.348 25.2079 216.981 26.5205 216.981 28.6985C216.981 30.8766 218.35 32.1892 220.158 32.1892C221.967 32.1892 223.336 30.872 223.336 28.6985Z" fill="#3A3F44"/>
</svg>
